<?xml version="1.0" encoding="UTF-8" standalone="no" ?>
<!DOCTYPE svg PUBLIC "-//W3C//DTD SVG 1.1//EN" "http://www.w3.org/Graphics/SVG/1.1/DTD/svg11.dtd">
<svg xmlns="http://www.w3.org/2000/svg" xmlns:xlink="http://www.w3.org/1999/xlink" version="1.1" width="192" height="192" viewBox="0 0 192 192" xml:space="preserve">
<desc>Created with Fabric.js 4.6.0</desc>
<defs>
</defs>
<g transform="matrix(0.3 0 0 0.3 58.91 76)" id="qy0MAbhmzpNXoPrQu5iTl"  >
<path style="stroke: none; stroke-width: 1; stroke-dasharray: none; stroke-linecap: butt; stroke-dashoffset: 0; stroke-linejoin: miter; stroke-miterlimit: 4; fill: rgb(144,203,248); fill-rule: nonzero; opacity: 1;" vector-effect="non-scaling-stroke"  transform=" translate(-196.25, -255.79)" d="M 239.25 396.09 L 303.18 323.08 L 320 1.1 L 72.5 510.48 L 239.25 396.09 Z" stroke-linecap="round" />
</g>
<g transform="matrix(0.99 0 0 0.99 126.25 184.77)" id="G3g1na3gZ7jrEXbZItuCG"  >
<path style="stroke: rgb(0,0,0); stroke-opacity: 0; stroke-width: 1; stroke-dasharray: none; stroke-linecap: butt; stroke-dashoffset: 0; stroke-linejoin: miter; stroke-miterlimit: 4; fill: rgb(0,0,0); fill-opacity: 0; fill-rule: nonzero; opacity: 1;" vector-effect="non-scaling-stroke"  transform=" translate(-196.25, -255.79)" d="M 239.25 396.09 L 303.18 323.08 L 320 1.1 L 72.5 510.48 L 239.25 396.09 Z" stroke-linecap="round" />
</g>
<g transform="matrix(0.3 0 0 0.3 133.09 76)" id="hT375my21VJB16L_z6G56"  >
<path style="stroke: none; stroke-width: 1; stroke-dasharray: none; stroke-linecap: butt; stroke-dashoffset: 0; stroke-linejoin: miter; stroke-miterlimit: 4; fill: rgb(144,203,248); fill-rule: nonzero; opacity: 1;" vector-effect="non-scaling-stroke"  transform=" translate(-443.75, -255.79)" d="M 400.75 396.09 L 336.82 323.08 L 320 1.1 L 567.5 510.48 L 400.75 396.09 Z" stroke-linecap="round" />
</g>
<g transform="matrix(0.99 0 0 0.99 371.77 184.77)" id="JjqU5fIq1XF4HThFQVaXo"  >
<path style="stroke: rgb(0,0,0); stroke-opacity: 0; stroke-width: 1; stroke-dasharray: none; stroke-linecap: butt; stroke-dashoffset: 0; stroke-linejoin: miter; stroke-miterlimit: 4; fill: rgb(0,0,0); fill-opacity: 0; fill-rule: nonzero; opacity: 1;" vector-effect="non-scaling-stroke"  transform=" translate(-443.75, -255.79)" d="M 400.75 396.09 L 336.82 323.08 L 320 1.1 L 567.5 510.48 L 400.75 396.09 Z" stroke-linecap="round" />
</g>
<g transform="matrix(0.3 0 0 0.3 96 147.55)" id="74jianV_WMlluqNo-VUsv"  >
<path style="stroke: none; stroke-width: 1; stroke-dasharray: none; stroke-linecap: butt; stroke-dashoffset: 0; stroke-linejoin: miter; stroke-miterlimit: 4; fill: rgb(144,203,248); fill-rule: nonzero; opacity: 1;" vector-effect="non-scaling-stroke"  transform=" translate(-320, -494.5)" d="M 375.52 409.55 L 320 640 L 264.48 409.55 L 320 348.99 L 375.52 409.55 Z" stroke-linecap="round" />
</g>
<g transform="matrix(0.99 0 0 0.99 249.01 421.56)" id="ikoBqQCLIw54qmS66zhOA"  >
<path style="stroke: rgb(0,0,0); stroke-opacity: 0; stroke-width: 1; stroke-dasharray: none; stroke-linecap: butt; stroke-dashoffset: 0; stroke-linejoin: miter; stroke-miterlimit: 4; fill: rgb(0,0,0); fill-opacity: 0; fill-rule: nonzero; opacity: 1;" vector-effect="non-scaling-stroke"  transform=" translate(-320, -494.5)" d="M 375.52 409.55 L 320 640 L 264.48 409.55 L 320 348.99 L 375.52 409.55 Z" stroke-linecap="round" />
</g>
</svg>