<svg xmlns="http://www.w3.org/2000/svg" xmlns:xlink="http://www.w3.org/1999/xlink" version="1.1" viewBox="239 241 22 18" xml:space="preserve">
<g transform="matrix(1 0 0 1 250 250)" >
<path style="stroke: none; stroke-width: 1; stroke-dasharray: none; stroke-linecap: butt; stroke-dashoffset: 0; stroke-linejoin: miter; stroke-miterlimit: 4; fill: rgb(0,0,0); fill-rule: nonzero; opacity: 1;" vector-effect="non-scaling-stroke"  transform=" translate(-12, -11.5)" d="M 12 3 C 11.447715250169207 3 11 3.4477152501692068 11 4 C 10.999584571941336 4.3230610476620255 11.155266138759156 4.626421667008511 11.417969 4.8144531 L 8.3457031 9.1152344 L 2.9472656 7.3164062 C 2.9817550534995254 7.214462229812944 2.999562227403422 7.107619253924886 3 7 C 3 6.447715250169207 2.5522847498307932 6 2 6 C 1.4477152501692065 6 1 6.447715250169207 1 7 C 1 7.552284749830793 1.4477152501692065 8 2 8 C 2.072975617512943 7.999472471524621 2.145674225612892 7.990958229490613 2.2167968999999994 7.9746094 L 3.6523438 14.433594 C 3.8553437 15.348594 4.6665156 16 5.6035156 16 L 18.394531 16 C 19.331531 16 20.144656 15.348594 20.347656 14.433594 L 21.783203 7.9765625 C 21.854398270591638 7.992254332472819 21.927096040792016 8.00011354634142 22 8 C 22.552284749830793 8 23 7.552284749830793 23 7 C 23 6.447715250169207 22.552284749830793 6 22 6 C 21.447715250169207 6 21 6.447715250169207 21 7 C 21.00043764371562 7.107619232096924 21.01824468245373 7.21446220741414 21.052734 7.3164062 L 15.654297 9.1152344 L 12.580078 4.8125 C 12.842959375750146 4.625293796248278 12.999334392200527 4.322726412624808 13 4 C 13 3.4477152501692068 12.552284749830793 3 12 3 z M 5 18 C 4.448 18 4 18.448 4 19 C 4 19.552 4.448 20 5 20 L 19 20 C 19.552 20 20 19.552 20 19 C 20 18.448 19.552 18 19 18 L 5 18 z" stroke-linecap="round" />
</g>
</svg>