<svg xmlns="http://www.w3.org/2000/svg" viewBox="0 0 30 30"><path d="M 15.980469 3.9902344 A 1.0001 1.0001 0 0 0 15.292969 4.2929688 C 15.292969 4.2929688 14.915097 4.6834774 14.605469 5.3027344 C 14.386729 5.7402136 14.179749 6.3308071 14.074219 7.046875 C 7.3277992 7.5316937 2 13.174002 2 17 C 2 17.552 2.448 18 3 18 L 9 18 C 9.552 18 10 18.448 10 19 C 10 19.552 9.552 20 9 20 L 4 20 C 4 20 4.7066406 20.706094 4.9316406 22.121094 C 5.0106406 22.619094 5.4198281 23 5.9238281 23 L 24.076172 23 C 24.581172 23 24.987406 22.619094 25.066406 22.121094 C 25.292406 20.706094 26 20 26 20 L 25 20 C 24.448 20 24 19.552 24 19 C 24 18.448 24.448 18 25 18 L 27 18 C 27.552 18 28 17.552 28 17 C 28 13.207049 22.765073 7.6253098 16.101562 7.0566406 C 16.178613 6.702363 16.287018 6.4122928 16.394531 6.1972656 C 16.584903 5.8165226 16.707031 5.7070312 16.707031 5.7070312 A 1.0001 1.0001 0 0 0 15.980469 3.9902344 z"></path></svg>
