<svg xmlns="http://www.w3.org/2000/svg" viewBox="0 0 128 128"><path d="M64 43c-6.1 0-11-4.9-11-11s4.9-11 11-11 11 4.9 11 11S70.1 43 64 43zM64 27c-2.8 0-5 2.2-5 5s2.2 5 5 5 5-2.2 5-5S66.8 27 64 27zM110.7 99.4C117.6 94.3 122 86.2 122 77c0-15.4-12.6-28-28-28-5.4 0-10.5 1.5-15 4.4-4.5-2.9-9.6-4.4-15-4.4s-10.5 1.5-15 4.4c-4.5-2.9-9.6-4.4-15-4.4C18.6 49 6 61.6 6 77c0 9.2 4.4 17.3 11.3 22.4-3.6 1.2-6.3 4.6-6.3 8.6 0 5 4 9 9 9h88c5 0 9-4 9-9C117 104 114.4 100.6 110.7 99.4zM82 58l.1 0c1.1-.4 2.4 0 3.1.9C89.5 63.8 92 70.1 92 77c0 1.7-1.4 3.1-3.2 3-1.6-.1-2.8-1.5-2.8-3.1 0-5.4-2-10.3-5.2-14.1C79.4 61.2 80 58.7 82 58zM42.7 58.9c.8-.9 2-1.3 3.2-.9h0c2 .6 2.8 3.1 1.4 4.8C44 66.6 42 71.6 42 77c0 1.8-1.7 3.3-3.6 2.9C37 79.7 36 78.3 36 76.8 36 70 38.5 63.7 42.7 58.9zM108 111H20c-1.7 0-3-1.3-3-3s1.3-3 3-3h14 60 14c1.7 0 3 1.3 3 3S109.7 111 108 111z"></path></svg>
