<?xml version="1.0" encoding="utf-8"?>
<svg viewBox="0 0 24 24" fill="none" xmlns="http://www.w3.org/2000/svg">
  <path d="M 11.066 8.004 L 11.25 7.999 L 18.75 7.999 C 20.483 7.999 21.899 9.355 21.995 11.064 L 22 11.249 L 22 18.749 C 22 20.482 20.644 21.898 18.934 21.994 L 18.75 21.999 L 11.25 21.999 C 9.517 21.999 8.101 20.642 8.005 18.933 L 8 18.749 L 8 11.249 C 8 9.516 9.356 8.1 11.066 8.004 Z M 18.75 9.499 L 11.25 9.499 C 10.332 9.499 9.579 10.206 9.506 11.105 L 9.5 11.249 L 9.5 18.749 C 9.5 19.667 10.207 20.42 11.107 20.493 L 11.25 20.499 L 18.75 20.499 C 19.668 20.499 20.421 19.792 20.494 18.892 L 20.5 18.749 L 20.5 11.249 C 20.5 10.282 19.717 9.499 18.75 9.499 Z M 34.568 6.257 C 34.982 6.257 34.903 3.835 34.903 4.249 L 35.644 4.672 L 32.718 7.163 C 33.132 7.163 32.757 5.039 32.757 5.453 C 32.757 5.867 36.868 7.478 37.225 3.475 C 37.857 4.424 36.276 7.121 35.644 6.172 L 34.251 5.531 C 34.251 5.945 35.901 4.117 35.487 4.117 C 35.073 4.117 35.36 6.775 35.36 6.361 L 34.144 6.172 L 36.892 5.402 C 36.478 5.402 36.527 5.659 36.053 5.512 C 35.579 5.365 34.64 7.223 35.054 7.223 L 34.144 4.672 L 34.944 4.783 C 34.944 4.369 34.154 6.257 34.568 6.257 Z M 15.582 4.233 L 15.635 4.41 L 16.327 6.998 L 14.774 6.998 L 14.186 4.798 C 13.936 3.864 12.976 3.31 12.042 3.56 L 4.798 5.502 C 3.913 5.739 3.37 6.612 3.528 7.497 L 3.56 7.645 L 5.502 14.889 C 5.694 15.606 6.304 16.1 7 16.176 L 7.001 17.682 C 5.699 17.605 4.53 16.745 4.105 15.454 L 4.053 15.278 L 2.112 8.033 C 1.663 6.359 2.607 4.64 4.233 4.105 L 4.41 4.053 L 11.654 2.112 C 13.328 1.663 15.047 2.607 15.582 4.233 Z" style="fill: rgb(0, 0, 0);"/>
</svg>