<?xml version="1.0" standalone="no"?>
<!DOCTYPE svg PUBLIC "-//W3C//DTD SVG 20010904//EN"
 "http://www.w3.org/TR/2001/REC-SVG-20010904/DTD/svg10.dtd">
<svg version="1.0" xmlns="http://www.w3.org/2000/svg"
 width="344.000000pt" height="344.000000pt" viewBox="0 0 344.000000 344.000000"
 preserveAspectRatio="xMidYMid meet">

<g transform="translate(0.000000,344.000000) scale(0.100000,-0.100000)"
fill="#000000" stroke="none">
<path d="M1556 3130 c-479 -61 -889 -349 -1104 -776 -53 -105 -97 -233 -124
-357 -31 -146 -31 -408 0 -554 122 -571 544 -993 1115 -1115 146 -31 408 -31
554 0 438 94 794 366 991 758 53 105 97 233 124 357 31 146 31 408 0 554 -122
571 -550 999 -1115 1114 -115 23 -333 33 -441 19z m450 -108 c179 -42 381
-131 477 -211 16 -13 16 -15 -5 -25 -43 -22 -30 -76 18 -76 24 0 50 33 39 50
-3 6 -1 10 5 10 15 0 230 -215 230 -230 0 -6 -4 -8 -10 -5 -17 11 -50 -15 -50
-39 0 -48 54 -61 76 -18 10 21 12 21 26 5 35 -43 50 -75 39 -86 -29 -29 4 -86
42 -71 17 6 67 -101 101 -219 l24 -81 -22 -11 c-14 -7 -21 -20 -21 -40 0 -26
4 -30 31 -33 30 -3 31 -5 38 -64 3 -34 6 -78 6 -100 0 -36 -1 -37 -20 -26 -26
17 -55 0 -55 -32 0 -32 29 -49 55 -32 19 11 20 10 20 -26 0 -22 -3 -66 -6
-100 -7 -59 -8 -61 -38 -64 -27 -3 -31 -7 -31 -33 0 -20 7 -33 21 -40 l22 -11
-24 -81 c-34 -118 -84 -225 -101 -219 -38 15 -71 -42 -42 -71 11 -11 -4 -43
-39 -86 -14 -16 -16 -16 -26 5 -22 43 -76 30 -76 -18 0 -24 33 -50 50 -39 6 3
10 1 10 -5 0 -15 -215 -230 -230 -230 -6 0 -8 4 -5 10 11 17 -15 50 -39 50
-48 0 -61 -54 -18 -76 21 -10 21 -12 5 -26 -43 -35 -75 -50 -86 -39 -29 29
-86 -4 -71 -42 9 -25 -176 -98 -341 -133 -88 -19 -284 -29 -397 -20 l-87 8 -3
31 c-3 28 -7 32 -33 32 -20 0 -33 -7 -40 -21 l-11 -22 -82 24 c-512 148 -901
632 -939 1167 l-6 89 21 -13 c28 -18 57 -2 57 31 0 32 -29 49 -55 32 -19 -11
-20 -10 -20 26 0 22 3 66 6 100 7 59 8 61 38 64 27 3 31 7 31 33 0 20 -7 33
-21 40 l-22 11 24 81 c34 118 84 225 101 219 38 -15 71 42 42 71 -11 11 4 43
39 86 14 16 16 16 26 -5 22 -43 76 -30 76 18 0 24 -33 50 -50 39 -6 -3 -10 -1
-10 5 0 15 215 230 230 230 6 0 8 -4 5 -10 -11 -17 15 -50 39 -50 48 0 61 54
18 76 -21 10 -21 12 -5 26 43 35 75 50 86 39 29 -29 86 4 71 42 -6 17 101 67
219 101 l81 24 11 -22 c7 -14 20 -21 40 -21 26 0 30 4 33 32 3 29 6 32 45 36
23 3 116 4 207 2 126 -2 186 -7 256 -23z"/>
<path d="M1302 2908 c-27 -27 -6 -68 35 -68 29 0 48 33 33 60 -12 22 -49 27
-68 8z"/>
<path d="M1561 2906 c-16 -19 -11 -46 12 -60 25 -16 52 4 52 40 0 24 -5 30
-26 32 -14 2 -31 -4 -38 -12z"/>
<path d="M1814 2906 c-15 -40 21 -80 54 -60 37 24 21 74 -25 74 -13 0 -26 -6
-29 -14z"/>
<path d="M1172 2778 c-27 -27 -6 -68 35 -68 29 0 48 33 33 60 -12 22 -49 27
-68 8z"/>
<path d="M1424 2765 c-7 -29 10 -55 36 -55 24 0 42 24 38 52 -2 18 -10 24 -35
26 -28 3 -33 -1 -39 -23z"/>
<path d="M1684 2776 c-9 -23 -1 -48 19 -60 25 -16 52 4 52 40 0 25 -4 29 -33
32 -22 2 -34 -2 -38 -12z"/>
<path d="M790 2650 c-24 -24 -25 -34 -4 -54 29 -29 74 -13 74 25 0 19 -25 49
-41 49 -5 0 -18 -9 -29 -20z"/>
<path d="M1050 2652 c-16 -13 -21 -24 -16 -40 13 -38 69 -40 81 -1 13 40 -32
68 -65 41z"/>
<path d="M1306 2654 c-34 -33 -8 -82 38 -70 32 8 40 42 15 67 -23 23 -33 24
-53 3z"/>
<path d="M1566 2657 c-38 -27 2 -95 42 -71 24 16 28 55 6 71 -10 7 -21 13 -24
13 -3 0 -14 -6 -24 -13z"/>
<path d="M1826 2657 c-38 -27 2 -95 42 -71 24 16 28 55 6 71 -10 7 -21 13 -24
13 -3 0 -14 -6 -24 -13z"/>
<path d="M2340 2652 c-16 -13 -21 -24 -16 -40 13 -38 69 -40 81 -1 13 40 -32
68 -65 41z"/>
<path d="M2596 2654 c-34 -33 -8 -82 38 -70 32 8 40 42 15 67 -23 23 -33 24
-53 3z"/>
<path d="M917 2522 c-10 -10 -17 -24 -17 -30 0 -15 29 -42 45 -42 18 0 45 27
45 45 0 17 -27 45 -44 45 -7 0 -20 -8 -29 -18z"/>
<path d="M1176 2524 c-9 -8 -16 -22 -16 -29 0 -18 27 -45 45 -45 17 0 45 27
45 44 0 15 -32 46 -48 46 -6 0 -18 -7 -26 -16z"/>
<path d="M2207 2522 c-10 -10 -17 -24 -17 -30 0 -15 29 -42 45 -42 7 0 21 7
29 16 9 8 16 22 16 29 0 17 -27 45 -44 45 -7 0 -20 -8 -29 -18z"/>
<path d="M2466 2524 c-9 -8 -16 -22 -16 -29 0 -7 7 -21 16 -29 8 -9 22 -16 29
-16 17 0 45 27 45 44 0 15 -32 46 -48 46 -6 0 -18 -7 -26 -16z"/>
<path d="M786 2388 c-13 -19 -14 -25 -2 -43 18 -26 40 -30 60 -10 20 21 20 39
0 59 -21 22 -40 20 -58 -6z"/>
<path d="M1046 2394 c-9 -8 -16 -22 -16 -29 0 -18 27 -45 45 -45 18 0 45 27
45 45 0 18 -27 45 -45 45 -7 0 -21 -7 -29 -16z"/>
<path d="M1306 2394 c-20 -20 -20 -38 0 -59 20 -20 42 -16 60 10 12 18 11 24
-2 43 -18 26 -37 28 -58 6z"/>
<path d="M2076 2388 c-13 -19 -14 -25 -2 -43 18 -26 40 -30 60 -10 20 21 20
39 0 59 -21 22 -40 20 -58 -6z"/>
<path d="M2336 2394 c-9 -8 -16 -22 -16 -29 0 -7 7 -21 16 -29 8 -9 22 -16 29
-16 7 0 21 7 29 16 9 8 16 22 16 29 0 7 -7 21 -16 29 -8 9 -22 16 -29 16 -7 0
-21 -7 -29 -16z"/>
<path d="M2596 2394 c-20 -20 -20 -38 0 -59 20 -20 42 -16 60 10 12 18 11 24
-2 43 -18 26 -37 28 -58 6z"/>
<path d="M662 2268 c-34 -34 6 -90 48 -68 35 19 20 80 -20 80 -9 0 -21 -5 -28
-12z"/>
<path d="M916 2264 c-9 -8 -16 -21 -16 -28 0 -15 32 -46 48 -46 15 0 42 29 42
45 0 18 -27 45 -45 45 -7 0 -21 -7 -29 -16z"/>
<path d="M1176 2264 c-9 -8 -16 -22 -16 -29 0 -17 27 -45 44 -45 15 0 46 32
46 48 0 15 -29 42 -45 42 -7 0 -21 -7 -29 -16z"/>
<path d="M2206 2264 c-9 -8 -16 -21 -16 -28 0 -15 32 -46 48 -46 15 0 42 29
42 45 0 7 -7 21 -16 29 -8 9 -22 16 -29 16 -7 0 -21 -7 -29 -16z"/>
<path d="M2466 2264 c-9 -8 -16 -22 -16 -29 0 -17 27 -45 44 -45 15 0 46 32
46 48 0 15 -29 42 -45 42 -7 0 -21 -7 -29 -16z"/>
<path d="M2722 2268 c-34 -34 6 -90 48 -68 35 19 20 80 -20 80 -9 0 -21 -5
-28 -12z"/>
<path d="M532 2138 c-34 -34 6 -90 48 -68 35 19 20 80 -20 80 -9 0 -21 -5 -28
-12z"/>
<path d="M786 2134 c-21 -20 -20 -30 3 -53 25 -25 59 -17 67 15 12 46 -37 72
-70 38z"/>
<path d="M2076 2134 c-21 -20 -20 -30 3 -53 25 -25 59 -17 67 15 12 46 -37 72
-70 38z"/>
<path d="M2335 2134 c-20 -20 -16 -42 10 -60 18 -12 24 -11 43 2 26 18 28 37
6 58 -20 20 -38 20 -59 0z"/>
<path d="M2590 2135 c-17 -20 -5 -61 21 -68 27 -7 61 26 52 50 -13 35 -51 44
-73 18z"/>
<path d="M2852 2138 c-34 -34 6 -90 48 -68 35 19 20 80 -20 80 -9 0 -21 -5
-28 -12z"/>
<path d="M662 2011 c-8 -4 -12 -21 -10 -37 2 -25 7 -29 32 -29 36 0 56 27 40
53 -13 19 -43 26 -62 13z"/>
<path d="M1952 2011 c-8 -4 -12 -21 -10 -37 2 -25 7 -29 32 -29 36 0 56 27 40
53 -13 19 -43 26 -62 13z"/>
<path d="M2200 2001 c-16 -31 4 -63 37 -59 34 4 52 32 37 56 -16 26 -60 28
-74 3z"/>
<path d="M2462 2008 c-27 -27 -6 -68 35 -68 29 0 48 33 33 60 -12 22 -49 27
-68 8z"/>
<path d="M2720 2005 c-7 -9 -10 -25 -6 -40 6 -22 11 -26 39 -23 27 3 33 8 35
32 5 43 -41 64 -68 31z"/>
<path d="M531 1876 c-7 -8 -11 -25 -9 -38 2 -18 9 -23 32 -23 36 0 56 27 40
53 -14 22 -48 27 -63 8z"/>
<path d="M2070 1871 c-16 -31 4 -63 37 -59 34 4 52 32 37 56 -16 26 -60 28
-74 3z"/>
<path d="M2328 1865 c-14 -30 3 -55 37 -55 12 0 28 7 35 15 20 24 -3 65 -35
65 -17 0 -29 -8 -37 -25z"/>
<path d="M2592 1878 c-27 -27 -6 -68 35 -68 29 0 48 33 33 60 -12 22 -49 27
-68 8z"/>
<path d="M2852 1878 c-29 -29 -2 -72 40 -66 42 6 32 78 -11 78 -9 0 -22 -5
-29 -12z"/>
<path d="M1944 1746 c-3 -8 -4 -25 -2 -38 2 -18 9 -23 32 -23 36 0 56 27 40
53 -14 22 -62 28 -70 8z"/>
<path d="M2200 1741 c-16 -31 4 -63 37 -59 34 4 52 32 37 56 -16 26 -60 28
-74 3z"/>
<path d="M2462 1748 c-27 -27 -6 -68 35 -68 29 0 48 33 33 60 -12 22 -49 27
-68 8z"/>
<path d="M2722 1748 c-29 -29 -3 -72 40 -66 19 2 23 9 23 38 0 30 -4 35 -25
38 -14 2 -31 -3 -38 -10z"/>
<path d="M524 1616 c-15 -40 21 -80 54 -60 37 24 21 74 -25 74 -13 0 -26 -6
-29 -14z"/>
<path d="M780 1611 c-16 -31 4 -63 37 -59 55 7 55 69 0 76 -18 2 -29 -3 -37
-17z"/>
<path d="M1040 1615 c-20 -24 3 -65 35 -65 32 0 55 41 35 65 -7 8 -23 15 -35
15 -12 0 -28 -7 -35 -15z"/>
<path d="M1814 1616 c-15 -40 21 -80 54 -60 37 24 21 74 -25 74 -13 0 -26 -6
-29 -14z"/>
<path d="M2070 1611 c-16 -31 4 -63 37 -59 34 4 52 32 37 56 -16 26 -60 28
-74 3z"/>
<path d="M2330 1615 c-20 -24 3 -65 35 -65 32 0 55 41 35 65 -7 8 -23 15 -35
15 -12 0 -28 -7 -35 -15z"/>
<path d="M2592 1618 c-27 -27 -6 -68 35 -68 29 0 48 33 33 60 -12 22 -49 27
-68 8z"/>
<path d="M2851 1616 c-16 -19 -11 -46 12 -60 25 -16 52 4 52 40 0 24 -5 30
-26 32 -14 2 -31 -4 -38 -12z"/>
<path d="M657 1493 c-4 -3 -7 -19 -7 -34 0 -22 6 -30 26 -35 35 -9 59 15 50
50 -5 20 -13 26 -35 26 -15 0 -31 -3 -34 -7z"/>
<path d="M910 1481 c-16 -31 4 -63 37 -59 55 7 55 69 0 76 -18 2 -29 -3 -37
-17z"/>
<path d="M1172 1488 c-27 -27 -6 -68 35 -68 29 0 48 33 33 60 -12 22 -49 27
-68 8z"/>
<path d="M1947 1493 c-4 -3 -7 -19 -7 -34 0 -22 6 -30 26 -35 17 -4 31 -1 41
9 10 10 13 24 9 41 -5 20 -13 26 -35 26 -15 0 -31 -3 -34 -7z"/>
<path d="M2200 1481 c-16 -31 4 -63 37 -59 34 4 52 32 37 56 -16 26 -60 28
-74 3z"/>
<path d="M2462 1488 c-27 -27 -6 -68 35 -68 29 0 48 33 33 60 -12 22 -49 27
-68 8z"/>
<path d="M2714 1475 c-7 -29 10 -55 36 -55 24 0 42 24 38 52 -2 18 -10 24 -35
26 -28 3 -33 -1 -39 -23z"/>
<path d="M790 1360 c-24 -24 -25 -34 -4 -54 29 -29 74 -13 74 25 0 19 -25 49
-41 49 -5 0 -18 -9 -29 -20z"/>
<path d="M1050 1362 c-16 -13 -21 -24 -16 -40 13 -38 69 -40 81 -1 13 40 -32
68 -65 41z"/>
<path d="M1306 1364 c-34 -33 -8 -82 38 -70 32 8 40 42 15 67 -23 23 -33 24
-53 3z"/>
<path d="M2340 1362 c-16 -13 -21 -24 -16 -40 13 -38 69 -40 81 -1 13 40 -32
68 -65 41z"/>
<path d="M2596 1364 c-34 -33 -8 -82 38 -70 32 8 40 42 15 67 -23 23 -33 24
-53 3z"/>
<path d="M2856 1367 c-38 -27 2 -95 42 -71 24 16 28 55 6 71 -10 7 -21 13 -24
13 -3 0 -14 -6 -24 -13z"/>
<path d="M666 1237 c-22 -16 -18 -55 7 -71 39 -24 79 44 41 71 -10 7 -21 13
-24 13 -3 0 -14 -6 -24 -13z"/>
<path d="M917 1232 c-10 -10 -17 -24 -17 -30 0 -15 29 -42 45 -42 7 0 21 7 29
16 9 8 16 22 16 29 0 17 -27 45 -44 45 -7 0 -20 -8 -29 -18z"/>
<path d="M1176 1234 c-9 -8 -16 -22 -16 -29 0 -7 7 -21 16 -29 8 -9 22 -16 29
-16 17 0 45 27 45 44 0 15 -32 46 -48 46 -6 0 -18 -7 -26 -16z"/>
<path d="M1436 1237 c-22 -16 -18 -55 7 -71 39 -24 79 44 41 71 -10 7 -21 13
-24 13 -3 0 -14 -6 -24 -13z"/>
<path d="M2466 1234 c-9 -8 -16 -22 -16 -29 0 -18 27 -45 45 -45 17 0 45 27
45 44 0 15 -32 46 -48 46 -6 0 -18 -7 -26 -16z"/>
<path d="M2726 1237 c-22 -16 -18 -55 7 -71 39 -24 79 44 41 71 -10 7 -21 13
-24 13 -3 0 -14 -6 -24 -13z"/>
<path d="M786 1098 c-13 -19 -14 -25 -2 -43 18 -26 40 -30 60 -10 20 21 20 39
0 59 -21 22 -40 20 -58 -6z"/>
<path d="M1046 1104 c-9 -8 -16 -22 -16 -29 0 -7 7 -21 16 -29 8 -9 22 -16 29
-16 7 0 21 7 29 16 9 8 16 22 16 29 0 7 -7 21 -16 29 -8 9 -22 16 -29 16 -7 0
-21 -7 -29 -16z"/>
<path d="M1306 1104 c-20 -20 -20 -38 0 -59 20 -20 42 -16 60 10 12 18 11 24
-2 43 -18 26 -37 28 -58 6z"/>
<path d="M1568 1109 c-27 -15 -23 -57 7 -71 30 -13 55 3 55 36 0 39 -28 55
-62 35z"/>
<path d="M2336 1104 c-9 -8 -16 -22 -16 -29 0 -18 27 -45 45 -45 18 0 45 27
45 45 0 18 -27 45 -45 45 -7 0 -21 -7 -29 -16z"/>
<path d="M2596 1104 c-20 -20 -20 -38 0 -59 20 -20 42 -16 60 10 12 18 11 24
-2 43 -18 26 -37 28 -58 6z"/>
<path d="M916 974 c-9 -8 -16 -21 -16 -28 0 -15 32 -46 48 -46 15 0 42 29 42
45 0 7 -7 21 -16 29 -8 9 -22 16 -29 16 -7 0 -21 -7 -29 -16z"/>
<path d="M1176 974 c-9 -8 -16 -22 -16 -29 0 -17 27 -45 44 -45 15 0 46 32 46
48 0 15 -29 42 -45 42 -7 0 -21 -7 -29 -16z"/>
<path d="M1432 978 c-34 -34 6 -90 48 -68 35 19 20 80 -20 80 -9 0 -21 -5 -28
-12z"/>
<path d="M2466 974 c-9 -8 -16 -22 -16 -29 0 -17 27 -45 44 -45 15 0 46 32 46
48 0 15 -29 42 -45 42 -7 0 -21 -7 -29 -16z"/>
<path d="M1045 844 c-20 -20 -16 -42 10 -60 18 -12 24 -11 43 2 26 18 28 37 6
58 -20 20 -38 20 -59 0z"/>
<path d="M1300 845 c-17 -20 -5 -61 21 -68 27 -7 61 26 52 50 -13 35 -51 44
-73 18z"/>
<path d="M2335 844 c-20 -20 -16 -42 10 -60 18 -12 24 -11 43 2 26 18 28 37 6
58 -20 20 -38 20 -59 0z"/>
<path d="M2590 845 c-17 -20 -5 -61 21 -68 27 -7 61 26 52 50 -13 35 -51 44
-73 18z"/>
<path d="M1172 718 c-27 -27 -6 -68 35 -68 29 0 48 33 33 60 -12 22 -49 27
-68 8z"/>
<path d="M1430 715 c-7 -9 -10 -25 -6 -40 6 -22 11 -26 39 -23 27 3 33 8 35
32 5 43 -41 64 -68 31z"/>
<path d="M2200 711 c-16 -31 4 -63 37 -59 34 4 52 32 37 56 -16 26 -60 28 -74
3z"/>
<path d="M1302 588 c-27 -27 -6 -68 35 -68 29 0 48 33 33 60 -12 22 -49 27
-68 8z"/>
<path d="M1562 588 c-7 -7 -12 -20 -12 -29 0 -43 72 -53 78 -11 6 42 -37 69
-66 40z"/>
</g>
</svg>
