<?xml version="1.0" encoding="UTF-8" standalone="no" ?>
<!DOCTYPE svg PUBLIC "-//W3C//DTD SVG 1.1//EN" "http://www.w3.org/Graphics/SVG/1.1/DTD/svg11.dtd">
<svg xmlns="http://www.w3.org/2000/svg" xmlns:xlink="http://www.w3.org/1999/xlink" version="1.1" width="153.95630076974655" height="114.73393219956515" viewBox="6.021849615126726 25.633033900217427 153.95630076974655 114.73393219956515" xml:space="preserve">
<desc>Created with Fabric.js 4.6.0</desc>
<defs>
</defs>
<g transform="matrix(1.23 0 0 1.23 83 83)" id="lJPvUj1QA0kAFonF3P-CJ"  >
<path style="stroke: none; stroke-width: 1; stroke-dasharray: none; stroke-linecap: butt; stroke-dashoffset: 0; stroke-linejoin: miter; stroke-miterlimit: 4; fill: rgb(232,230,227); fill-rule: nonzero; opacity: 1;" vector-effect="non-scaling-stroke"  transform=" translate(-67.73, -67.73)" d="M 71.766 36.352 C 71.766 36.352 61.554 35.6725 44.164 41.113899999999994 C 26.442 46.659099999999995 16.391000000000002 54.518899999999995 16.391000000000002 54.518899999999995 C 16.391000000000002 54.518899999999995 42.80500000000001 39.7709 72.619 38.9329 z M 109.85600000000001 52.387 L 111.18360000000001 52.30036 C 111.18360000000001 52.30036 103.57740000000001 43.07176 89.01860000000002 38.576359999999994 C 97.20250000000001 41.903059999999996 104.32560000000002 46.31085999999999 109.85560000000002 52.386359999999996 z M 112.02870000000001 56.2214 C 112.23281000000001 55.8675 112.89172000000002 57.3457 113.39210000000001 57.9667 C 113.4133 58.090700000000005 113.44850000000001 58.16637 113.15837000000002 58.106680000000004 C 113.13397000000002 57.97921 113.09187000000001 57.942240000000005 113.09187000000001 57.942240000000005 C 113.09187000000001 57.942240000000005 112.39158000000002 57.52557 112.17688000000001 57.230000000000004 C 111.96201 56.93444 111.92388000000001 56.41745 112.02863 56.2214 z M 129.8957 100.1514 C 129.8957 100.1514 131.5104 81.6134 102.38470000000001 77.3394 C 98.6932 76.79777 94.02480000000001 76.3809 89.30270000000002 76.36896 C 65.95870000000002 76.67761 65.10770000000002 49.44496 82.69830000000002 48.06996 C 89.98840000000001 47.46844 98.69330000000002 51.40106 107.20330000000001 55.36406 C 107.17170000000002 56.42096 107.21540000000002 57.36016 107.90976000000002 58.22806 C 108.60390000000002 59.09568 111.27046000000001 60.04226 112.12256000000002 60.53116 C 112.97459000000002 61.02023 115.70416000000002 62.75566 117.37686000000002 64.93286 C 117.73961000000003 64.25432 120.76896000000002 62.28246000000001 120.76896000000002 62.28246000000001 C 120.76896000000002 62.28246000000001 120.04325000000001 62.29825000000001 118.35496000000002 61.66727000000001 C 116.66646000000001 61.03629000000001 114.66286000000002 59.12717000000001 114.61546000000001 59.01687000000001 C 114.56816 58.90635000000001 114.53666000000001 58.73286000000001 114.93124000000002 58.653920000000014 C 115.23084000000001 58.40168000000001 114.55231000000002 57.581220000000016 114.25250000000001 57.28162000000001 C 113.95290000000001 56.98182000000001 111.94890000000001 53.574320000000014 111.9017 53.495320000000014 C 111.8544 53.41638000000001 111.83850000000001 53.337620000000015 111.69663 53.24289000000002 C 111.25473 53.10079000000002 109.31403 53.44795000000002 109.31403 53.44795000000002 C 109.31403 53.44795000000002 106.32933 51.98205000000002 105.30053000000001 48.821550000000016 C 105.31553000000001 49.37513000000001 104.78873000000002 49.97955000000002 105.30053000000001 51.251350000000016 C 103.74433 50.59303000000001 102.40763000000001 49.470250000000014 101.35333000000001 46.695650000000015 C 100.72582000000001 48.273750000000014 101.35333000000001 49.27715000000001 101.35333000000001 49.27715000000001 C 101.35333000000001 49.27715000000001 97.68873000000002 48.25315000000001 97.10243000000001 44.873550000000016 C 96.45893000000001 46.390650000000015 97.10243000000001 47.30315000000002 97.10243000000001 47.30315000000002 C 97.10243000000001 47.30315000000002 91.12823000000002 44.18595000000002 81.20143000000002 44.14075000000002 C 74.55543000000002 43.53114000000002 73.17183000000001 31.839750000000016 73.78753000000002 29.87175000000002 C 73.78753000000002 29.87175000000002 64.20153000000002 24.81965000000002 45.331530000000015 22.58765000000002 C 26.461530000000014 20.355450000000022 10.985530000000018 22.251270000000023 10.985530000000018 22.251270000000023 C 10.985530000000018 22.251270000000023 44.40653000000002 20.647370000000024 71.18053000000002 31.486870000000025 C 72.09071000000002 35.557770000000026 74.82873000000002 42.337870000000024 76.30343000000002 45.596870000000024 C 72.08373000000002 48.51437000000002 67.32533000000002 51.25777000000002 66.58433000000002 60.98787000000002 C 65.84359000000002 70.71757000000002 74.20883000000002 79.27587000000003 84.58233000000003 79.53987000000002 C 94.43253000000003 80.06456000000003 101.23833000000002 80.13908000000002 109.48733000000003 84.41577000000002 C 117.36123000000003 88.76947000000003 123.81733000000003 102.03577000000003 124.45633000000002 113.96677000000003 C 125.14641000000002 105.11437000000002 121.82433000000002 86.07777000000003 106.32233000000002 80.29777000000003 C 127.98933000000002 84.08947000000003 129.89533000000003 100.15177000000003 129.89533000000003 100.15177000000003 z M 71.2557 34.898399999999995 L 70.47607 32.3837 C 70.47607 32.3837 57.61207 30.099299999999996 40.31607000000001 31.328699999999998 C 23.02007000000001 32.558099999999996 5.55707000000001 38.6126 5.55707000000001 38.6126 C 5.55707000000001 38.6126 41.28907000000001 29.6216 71.25507 34.8983" stroke-linecap="round" />
</g>
</svg>