<?xml version="1.0" encoding="UTF-8" standalone="no" ?>
<!DOCTYPE svg PUBLIC "-//W3C//DTD SVG 1.1//EN" "http://www.w3.org/Graphics/SVG/1.1/DTD/svg11.dtd">
<svg xmlns="http://www.w3.org/2000/svg" xmlns:xlink="http://www.w3.org/1999/xlink" version="1.1" width="257" height="257" viewBox="121.5 121.5 257 257" xml:space="preserve">
<desc>Created with Fabric.js 4.6.0</desc>
<defs>
</defs>
<g transform="matrix(1 0 0 1 250 250)" id="vfVH2cOdzYyTfs7VGBYpf"  >
<path style="stroke: none; stroke-width: 1; stroke-dasharray: none; stroke-linecap: butt; stroke-dashoffset: 0; stroke-linejoin: miter; stroke-miterlimit: 4; fill: rgb(105,181,63); fill-rule: nonzero; opacity: 1;" vector-effect="non-scaling-stroke"  transform=" translate(-128, -128)" d="M 58 63 L 58 153 C 58.1 175.1 75.9 192.9 98 193 L 158 193 C 180.1 192.9 197.9 175.1 198 153 L 198 103 C 197.9 86.5 184.5 73.1 168 73 C 160.6 73 153.5 75.8 148 80.9 C 142.5 75.9 135.4 73.10000000000001 128 73 C 111.5 73.1 98.1 86.5 98 103 L 98 153 L 118 153 L 118 103 C 118 97.5 122.5 93 128 93 C 133.5 93 138 97.5 138 103 L 138 153 L 158 153 L 158 103 C 158 97.5 162.5 93 168 93 C 173.5 93 178 97.5 178 103 L 178 153 C 178.1 164 169.2 172.9 158.3 173 C 158.20000000000002 173 158.10000000000002 173 158 173 L 98 173 C 87 173.1 78.1 164.2 78 153.3 C 78 153.20000000000002 78 153.10000000000002 78 153 L 78 63 L 58 63 z" stroke-linecap="round" />
</g>
<g transform="matrix(1 0 0 1 250 250)" id="lL2-gpe3kSG38LV7iLpCG"  >
<path style="stroke: none; stroke-width: 1; stroke-dasharray: none; stroke-linecap: butt; stroke-dashoffset: 0; stroke-linejoin: miter; stroke-miterlimit: 4; fill: rgb(105,181,63); fill-rule: nonzero; opacity: 1;" vector-effect="non-scaling-stroke"  transform=" translate(-128, -128)" d="M 0 128 C 0 57.307550000000006 57.30755 0 128 0 C 198.69245 0 256 57.30755 256 128 C 256 198.69245 198.69245 256 128 256 C 57.307550000000006 256 0 198.69245 0 128 z M 128 236 C 187.64675 236 236 187.64675 236 128 C 236 68.35325 187.64675 20 128 20 C 68.35325 20 20 68.35325 20 128 C 20 187.64675 68.35325 236 128 236 z" stroke-linecap="round" />
</g>
</svg>