<?xml version="1.0" encoding="UTF-8" standalone="no" ?>
<!DOCTYPE svg PUBLIC "-//W3C//DTD SVG 1.1//EN" "http://www.w3.org/Graphics/SVG/1.1/DTD/svg11.dtd">
<svg xmlns="http://www.w3.org/2000/svg" xmlns:xlink="http://www.w3.org/1999/xlink" version="1.1" width="125" height="52" viewBox="187.5 224 125 52" xml:space="preserve">
<defs>
</defs>
<g transform="matrix(1 0 0 1 250 250)" id="VFQairs8KJe2qyeC6kHJ4"  >
<path style="stroke: none; stroke-width: 1; stroke-dasharray: none; stroke-linecap: butt; stroke-dashoffset: 0; stroke-linejoin: miter; stroke-miterlimit: 4; fill: rgb(203,56,55); fill-rule: nonzero; opacity: 1;" vector-effect="non-scaling-stroke"  transform=" translate(-64, -64)" d="M 2 38.5 L 126 38.5 L 126 82.21 L 64 82.21 L 64 89.5 L 36.44 89.5 L 36.44 82.21 L 2 82.21 Z M 8.89 74.93 L 22.67 74.93 L 22.67 53.07 L 29.560000000000002 53.07 L 29.560000000000002 74.93 L 36.45 74.93 L 36.45 45.79 L 8.89 45.79 Z M 43.33 45.79 L 43.33 82.21 L 57.11 82.21 L 57.11 74.93 L 70.89 74.93 L 70.89 45.79 Z M 57.11 53.08 L 64 53.08 L 64 67.64 L 57.11 67.64 Z M 77.78 45.79 L 77.78 74.93 L 91.56 74.93 L 91.56 53.07 L 98.45 53.07 L 98.45 74.93 L 105.34 74.93 L 105.34 53.07 L 112.23 53.07 L 112.23 74.93 L 119.12 74.93 L 119.12 45.79 Z" stroke-linecap="round" />
</g>
</svg>