<?xml version="1.0" encoding="UTF-8" standalone="no" ?>
<!DOCTYPE svg PUBLIC "-//W3C//DTD SVG 1.1//EN" "http://www.w3.org/Graphics/SVG/1.1/DTD/svg11.dtd">
<svg xmlns="http://www.w3.org/2000/svg" xmlns:xlink="http://www.w3.org/1999/xlink" version="1.1" width="325.94" height="231.16" viewBox="186.54 204.42000000000002 325.94 231.16" xml:space="preserve">
<desc>Created with Fabric.js 4.6.0</desc>
<defs>
</defs>
<g transform="matrix(1 0 0 1 349.51 320)" id="cIjGfLhL-GIagq3Q2Jf0_"  >
<g style="" vector-effect="non-scaling-stroke"   >
		<g transform="matrix(1 0 0 1 -26.17 0)" id="pXNa7pW8HfhgwNdiXJFii"  >
<g style="" vector-effect="non-scaling-stroke"   >
		<g transform="matrix(1.94 0 0 1.46 49.24 53.89)" id="yx7kzMZg2HZA33pBcTa7j"  >
<path style="stroke: rgb(216,0,0); stroke-width: 0; stroke-dasharray: none; stroke-linecap: butt; stroke-dashoffset: 0; stroke-linejoin: miter; stroke-miterlimit: 4; fill: rgb(195,203,255); fill-rule: nonzero; opacity: 1;" vector-effect="non-scaling-stroke"  transform=" translate(0, 0)" d="M -5.43807 -5.43807 L 5.43806 -5.43807 L 5.43806 5.43806 L -5.43807 5.43806 z" stroke-linecap="round" />
</g>
		<g transform="matrix(1 0 0 1 -3.34 0)" id="3qsenUX-6DXTb1Vwvs05d"  >
<g style="" vector-effect="non-scaling-stroke"   >
		<g transform="matrix(1 0 0 1 0 5.38)" id="P-nyy6b9BEoIbPnc15enr"  >
<path style="stroke: none; stroke-width: 0; stroke-dasharray: none; stroke-linecap: butt; stroke-dashoffset: 0; stroke-linejoin: miter; stroke-miterlimit: 4; fill: rgb(195,203,255); fill-rule: nonzero; opacity: 1;" vector-effect="non-scaling-stroke"  transform=" translate(-56.45, -56.45)" d="M 112.8972 112.8972 L 0 112.8972 L 56.4486 0 z M 56.44859 36.37359 L 18.186790000000002 112.89719 L 94.71039 112.89719 z" stroke-linecap="round" />
</g>
		<g transform="matrix(1.13 2.26 -1.3 0.65 -6.29 -45.95)" id="OHJNzpdhSbOrP1grWwcGN"  >
<path style="stroke: rgb(216,0,0); stroke-width: 0; stroke-dasharray: none; stroke-linecap: butt; stroke-dashoffset: 0; stroke-linejoin: miter; stroke-miterlimit: 4; fill: rgb(195,203,255); fill-rule: nonzero; opacity: 1;" vector-effect="non-scaling-stroke"  transform=" translate(0, 0)" d="M -5.43807 -5.43807 L 5.43806 -5.43807 L 5.43806 5.43806 L -5.43807 5.43806 z" stroke-linecap="round" />
</g>
		<g transform="matrix(2.31 0 0 1.46 -18.13 -53.89)" id="6KtGkmFilwZsYUJDNX0Gp"  >
<path style="stroke: rgb(216,0,0); stroke-width: 0; stroke-dasharray: none; stroke-linecap: butt; stroke-dashoffset: 0; stroke-linejoin: miter; stroke-miterlimit: 4; fill: rgb(195,203,255); fill-rule: nonzero; opacity: 1;" vector-effect="non-scaling-stroke"  transform=" translate(0, 0)" d="M -5.43807 -5.43807 L 5.43806 -5.43807 L 5.43806 5.43806 L -5.43807 5.43806 z" stroke-linecap="round" />
</g>
</g>
</g>
</g>
</g>
		<g transform="matrix(1 0 0 1 -29.51 0)" id="STLfv6o0GwHTerzgudw-c"  >
<path style="stroke: rgb(216,0,0); stroke-width: 0; stroke-dasharray: none; stroke-linecap: butt; stroke-dashoffset: 0; stroke-linejoin: miter; stroke-miterlimit: 4; fill: rgb(195,203,255); fill-rule: nonzero; opacity: 1;" vector-effect="non-scaling-stroke"  transform=" translate(-133.46, -115.58)" d="M 200.1869 0 L 266.91589 115.57797 L 200.18689999999998 231.15594 L 66.72898999999998 231.15594 L -1.4210854715202004e-14 115.57797 L 66.72898999999998 0 z M 76.76767 17.38756 L 20.077419999999996 115.57797 L 76.76767 213.76837999999998 L 190.14821 213.76837999999998 L 246.83846 115.57796999999998 L 190.14821 17.38755999999998 z" stroke-linecap="round" />
</g>
		<g transform="matrix(1 0 0 1 99.25 -57.79)" id="Cm-qlMDUKter54r3YIA_h"  >
<path style="stroke: rgb(216,0,0); stroke-width: 0; stroke-dasharray: none; stroke-linecap: butt; stroke-dashoffset: 0; stroke-linejoin: miter; stroke-miterlimit: 4; fill: rgb(195,203,255); fill-rule: nonzero; opacity: 1;" vector-effect="non-scaling-stroke"  transform=" translate(-63.72, -57.79)" d="M 0 0 L 119.39327 0 L 127.44208 14.00216 L 68.41121000000001 115.57797000000001 z" stroke-linecap="round" />
</g>
</g>
</g>
</svg>